<mxfile host="app.diagrams.net" modified="2023-04-22T10:57:51.616Z" agent="Mozilla/5.0 (Windows NT 10.0; Win64; x64; rv:109.0) Gecko/20100101 Firefox/112.0" etag="KF25rmvgyrcBFzRy8pet" version="21.2.0" type="device">
  <diagram name="Page-1" id="T3zc3DRB2rkxz7JyD2Zi">
    <mxGraphModel dx="1434" dy="746" grid="1" gridSize="10" guides="1" tooltips="1" connect="1" arrows="1" fold="1" page="1" pageScale="1" pageWidth="850" pageHeight="1100" math="0" shadow="0">
      <root>
        <mxCell id="0" />
        <mxCell id="1" parent="0" />
        <mxCell id="1a8B9Cdez3TgNIUol2u2-1" value="&lt;div&gt;Ticket&lt;/div&gt;" style="whiteSpace=wrap;html=1;align=center;" vertex="1" parent="1">
          <mxGeometry x="590" y="320" width="100" height="40" as="geometry" />
        </mxCell>
        <mxCell id="1a8B9Cdez3TgNIUol2u2-3" style="rounded=0;orthogonalLoop=1;jettySize=auto;html=1;exitX=0;exitY=1;exitDx=0;exitDy=0;endArrow=none;endFill=0;" edge="1" parent="1" source="1a8B9Cdez3TgNIUol2u2-2">
          <mxGeometry relative="1" as="geometry">
            <mxPoint x="690" y="330" as="targetPoint" />
          </mxGeometry>
        </mxCell>
        <mxCell id="1a8B9Cdez3TgNIUol2u2-2" value="&lt;div&gt;ticketId&lt;/div&gt;" style="ellipse;whiteSpace=wrap;html=1;align=center;fontStyle=4;" vertex="1" parent="1">
          <mxGeometry x="720" y="290" width="100" height="40" as="geometry" />
        </mxCell>
        <mxCell id="1a8B9Cdez3TgNIUol2u2-10" style="rounded=0;orthogonalLoop=1;jettySize=auto;html=1;exitX=0;exitY=0;exitDx=0;exitDy=0;entryX=1;entryY=1;entryDx=0;entryDy=0;endArrow=none;endFill=0;" edge="1" parent="1" source="1a8B9Cdez3TgNIUol2u2-4" target="1a8B9Cdez3TgNIUol2u2-1">
          <mxGeometry relative="1" as="geometry" />
        </mxCell>
        <mxCell id="1a8B9Cdez3TgNIUol2u2-4" value="&lt;div&gt;price&lt;/div&gt;" style="ellipse;whiteSpace=wrap;html=1;align=center;" vertex="1" parent="1">
          <mxGeometry x="720" y="370" width="100" height="40" as="geometry" />
        </mxCell>
        <mxCell id="1a8B9Cdez3TgNIUol2u2-9" style="rounded=0;orthogonalLoop=1;jettySize=auto;html=1;exitX=0.5;exitY=0;exitDx=0;exitDy=0;entryX=0.5;entryY=1;entryDx=0;entryDy=0;endArrow=none;endFill=0;" edge="1" parent="1" source="1a8B9Cdez3TgNIUol2u2-5" target="1a8B9Cdez3TgNIUol2u2-1">
          <mxGeometry relative="1" as="geometry" />
        </mxCell>
        <mxCell id="1a8B9Cdez3TgNIUol2u2-5" value="type" style="ellipse;whiteSpace=wrap;html=1;align=center;" vertex="1" parent="1">
          <mxGeometry x="640" y="420" width="100" height="40" as="geometry" />
        </mxCell>
        <mxCell id="1a8B9Cdez3TgNIUol2u2-8" style="rounded=0;orthogonalLoop=1;jettySize=auto;html=1;exitX=1;exitY=0;exitDx=0;exitDy=0;entryX=0.25;entryY=1;entryDx=0;entryDy=0;endArrow=none;endFill=0;" edge="1" parent="1" source="1a8B9Cdez3TgNIUol2u2-7" target="1a8B9Cdez3TgNIUol2u2-1">
          <mxGeometry relative="1" as="geometry" />
        </mxCell>
        <mxCell id="1a8B9Cdez3TgNIUol2u2-7" value="&lt;div&gt;date&lt;/div&gt;" style="ellipse;whiteSpace=wrap;html=1;align=center;" vertex="1" parent="1">
          <mxGeometry x="500" y="410" width="100" height="40" as="geometry" />
        </mxCell>
        <mxCell id="1a8B9Cdez3TgNIUol2u2-30" style="rounded=0;orthogonalLoop=1;jettySize=auto;html=1;exitX=0.75;exitY=1;exitDx=0;exitDy=0;entryX=0.5;entryY=0;entryDx=0;entryDy=0;endArrow=none;endFill=0;" edge="1" parent="1" source="1a8B9Cdez3TgNIUol2u2-11" target="1a8B9Cdez3TgNIUol2u2-25">
          <mxGeometry relative="1" as="geometry" />
        </mxCell>
        <mxCell id="1a8B9Cdez3TgNIUol2u2-31" style="rounded=0;orthogonalLoop=1;jettySize=auto;html=1;exitX=0;exitY=0.75;exitDx=0;exitDy=0;entryX=1;entryY=0.5;entryDx=0;entryDy=0;endArrow=none;endFill=0;" edge="1" parent="1" source="1a8B9Cdez3TgNIUol2u2-11" target="1a8B9Cdez3TgNIUol2u2-24">
          <mxGeometry relative="1" as="geometry" />
        </mxCell>
        <mxCell id="1a8B9Cdez3TgNIUol2u2-11" value="Exhibiton" style="whiteSpace=wrap;html=1;align=center;" vertex="1" parent="1">
          <mxGeometry x="280" y="290" width="100" height="40" as="geometry" />
        </mxCell>
        <mxCell id="1a8B9Cdez3TgNIUol2u2-12" value="User" style="whiteSpace=wrap;html=1;align=center;" vertex="1" parent="1">
          <mxGeometry x="530" y="110" width="100" height="40" as="geometry" />
        </mxCell>
        <mxCell id="1a8B9Cdez3TgNIUol2u2-15" style="rounded=0;orthogonalLoop=1;jettySize=auto;html=1;exitX=0;exitY=0.5;exitDx=0;exitDy=0;entryX=1;entryY=0.5;entryDx=0;entryDy=0;endArrow=none;endFill=0;" edge="1" parent="1" source="1a8B9Cdez3TgNIUol2u2-14" target="1a8B9Cdez3TgNIUol2u2-12">
          <mxGeometry relative="1" as="geometry" />
        </mxCell>
        <mxCell id="1a8B9Cdez3TgNIUol2u2-14" value="userId" style="ellipse;whiteSpace=wrap;html=1;align=center;fontStyle=4;" vertex="1" parent="1">
          <mxGeometry x="730" y="110" width="100" height="40" as="geometry" />
        </mxCell>
        <mxCell id="1a8B9Cdez3TgNIUol2u2-35" style="rounded=0;orthogonalLoop=1;jettySize=auto;html=1;exitX=0;exitY=1;exitDx=0;exitDy=0;entryX=0.92;entryY=0.75;entryDx=0;entryDy=0;entryPerimeter=0;endArrow=none;endFill=0;" edge="1" parent="1" source="1a8B9Cdez3TgNIUol2u2-16" target="1a8B9Cdez3TgNIUol2u2-18">
          <mxGeometry relative="1" as="geometry" />
        </mxCell>
        <mxCell id="1a8B9Cdez3TgNIUol2u2-16" value="lastName" style="ellipse;whiteSpace=wrap;html=1;align=center;" vertex="1" parent="1">
          <mxGeometry x="750" y="60" width="100" height="40" as="geometry" />
        </mxCell>
        <mxCell id="1a8B9Cdez3TgNIUol2u2-36" style="rounded=0;orthogonalLoop=1;jettySize=auto;html=1;exitX=0.5;exitY=1;exitDx=0;exitDy=0;entryX=1;entryY=0;entryDx=0;entryDy=0;endArrow=none;endFill=0;" edge="1" parent="1" source="1a8B9Cdez3TgNIUol2u2-17" target="1a8B9Cdez3TgNIUol2u2-18">
          <mxGeometry relative="1" as="geometry" />
        </mxCell>
        <mxCell id="1a8B9Cdez3TgNIUol2u2-17" value="firstName" style="ellipse;whiteSpace=wrap;html=1;align=center;" vertex="1" parent="1">
          <mxGeometry x="690" width="100" height="40" as="geometry" />
        </mxCell>
        <mxCell id="1a8B9Cdez3TgNIUol2u2-42" style="rounded=0;orthogonalLoop=1;jettySize=auto;html=1;exitX=0;exitY=1;exitDx=0;exitDy=0;entryX=1;entryY=0;entryDx=0;entryDy=0;endArrow=none;endFill=0;" edge="1" parent="1" source="1a8B9Cdez3TgNIUol2u2-18" target="1a8B9Cdez3TgNIUol2u2-12">
          <mxGeometry relative="1" as="geometry" />
        </mxCell>
        <mxCell id="1a8B9Cdez3TgNIUol2u2-18" value="name" style="ellipse;whiteSpace=wrap;html=1;align=center;" vertex="1" parent="1">
          <mxGeometry x="640" y="70" width="100" height="40" as="geometry" />
        </mxCell>
        <mxCell id="1a8B9Cdez3TgNIUol2u2-37" style="rounded=0;orthogonalLoop=1;jettySize=auto;html=1;exitX=0.5;exitY=1;exitDx=0;exitDy=0;entryX=0.5;entryY=0;entryDx=0;entryDy=0;endArrow=none;endFill=0;" edge="1" parent="1" source="1a8B9Cdez3TgNIUol2u2-19" target="1a8B9Cdez3TgNIUol2u2-12">
          <mxGeometry relative="1" as="geometry" />
        </mxCell>
        <mxCell id="1a8B9Cdez3TgNIUol2u2-19" value="email" style="ellipse;whiteSpace=wrap;html=1;align=center;" vertex="1" parent="1">
          <mxGeometry x="490" y="10" width="100" height="40" as="geometry" />
        </mxCell>
        <mxCell id="1a8B9Cdez3TgNIUol2u2-41" style="rounded=0;orthogonalLoop=1;jettySize=auto;html=1;exitX=1;exitY=0.5;exitDx=0;exitDy=0;entryX=0;entryY=0.5;entryDx=0;entryDy=0;endArrow=none;endFill=0;" edge="1" parent="1" source="1a8B9Cdez3TgNIUol2u2-20" target="1a8B9Cdez3TgNIUol2u2-12">
          <mxGeometry relative="1" as="geometry" />
        </mxCell>
        <mxCell id="1a8B9Cdez3TgNIUol2u2-20" value="&lt;div&gt;address&lt;/div&gt;" style="ellipse;whiteSpace=wrap;html=1;align=center;" vertex="1" parent="1">
          <mxGeometry x="400" y="100" width="100" height="40" as="geometry" />
        </mxCell>
        <mxCell id="1a8B9Cdez3TgNIUol2u2-22" style="rounded=0;orthogonalLoop=1;jettySize=auto;html=1;exitX=1;exitY=0;exitDx=0;exitDy=0;entryX=0;entryY=1;entryDx=0;entryDy=0;endArrow=none;endFill=0;" edge="1" parent="1" source="1a8B9Cdez3TgNIUol2u2-21" target="1a8B9Cdez3TgNIUol2u2-11">
          <mxGeometry relative="1" as="geometry" />
        </mxCell>
        <mxCell id="1a8B9Cdez3TgNIUol2u2-21" value="name" style="ellipse;whiteSpace=wrap;html=1;align=center;" vertex="1" parent="1">
          <mxGeometry x="160" y="390" width="100" height="40" as="geometry" />
        </mxCell>
        <mxCell id="1a8B9Cdez3TgNIUol2u2-32" style="rounded=0;orthogonalLoop=1;jettySize=auto;html=1;exitX=1;exitY=1;exitDx=0;exitDy=0;entryX=0;entryY=0;entryDx=0;entryDy=0;endArrow=none;endFill=0;" edge="1" parent="1" source="1a8B9Cdez3TgNIUol2u2-23" target="1a8B9Cdez3TgNIUol2u2-11">
          <mxGeometry relative="1" as="geometry" />
        </mxCell>
        <mxCell id="1a8B9Cdez3TgNIUol2u2-23" value="exhibitionId" style="ellipse;whiteSpace=wrap;html=1;align=center;fontStyle=4;" vertex="1" parent="1">
          <mxGeometry x="150" y="240" width="100" height="40" as="geometry" />
        </mxCell>
        <mxCell id="1a8B9Cdez3TgNIUol2u2-24" value="description" style="ellipse;whiteSpace=wrap;html=1;align=center;" vertex="1" parent="1">
          <mxGeometry x="130" y="330" width="100" height="40" as="geometry" />
        </mxCell>
        <mxCell id="1a8B9Cdez3TgNIUol2u2-25" value="picture" style="ellipse;whiteSpace=wrap;html=1;align=center;" vertex="1" parent="1">
          <mxGeometry x="290" y="400" width="100" height="40" as="geometry" />
        </mxCell>
        <mxCell id="1a8B9Cdez3TgNIUol2u2-38" style="rounded=0;orthogonalLoop=1;jettySize=auto;html=1;exitX=0.5;exitY=1;exitDx=0;exitDy=0;entryX=0.59;entryY=-0.025;entryDx=0;entryDy=0;entryPerimeter=0;endArrow=none;endFill=0;" edge="1" parent="1" source="1a8B9Cdez3TgNIUol2u2-26" target="1a8B9Cdez3TgNIUol2u2-20">
          <mxGeometry relative="1" as="geometry" />
        </mxCell>
        <mxCell id="1a8B9Cdez3TgNIUol2u2-26" value="postal code" style="ellipse;whiteSpace=wrap;html=1;align=center;" vertex="1" parent="1">
          <mxGeometry x="390" y="30" width="100" height="40" as="geometry" />
        </mxCell>
        <mxCell id="1a8B9Cdez3TgNIUol2u2-39" style="rounded=0;orthogonalLoop=1;jettySize=auto;html=1;exitX=1;exitY=1;exitDx=0;exitDy=0;entryX=0;entryY=0;entryDx=0;entryDy=0;endArrow=none;endFill=0;" edge="1" parent="1" source="1a8B9Cdez3TgNIUol2u2-27" target="1a8B9Cdez3TgNIUol2u2-20">
          <mxGeometry relative="1" as="geometry" />
        </mxCell>
        <mxCell id="1a8B9Cdez3TgNIUol2u2-27" value="city" style="ellipse;whiteSpace=wrap;html=1;align=center;" vertex="1" parent="1">
          <mxGeometry x="290" y="60" width="100" height="40" as="geometry" />
        </mxCell>
        <mxCell id="1a8B9Cdez3TgNIUol2u2-40" style="rounded=0;orthogonalLoop=1;jettySize=auto;html=1;exitX=1;exitY=0.5;exitDx=0;exitDy=0;entryX=0;entryY=1;entryDx=0;entryDy=0;endArrow=none;endFill=0;" edge="1" parent="1" source="1a8B9Cdez3TgNIUol2u2-28" target="1a8B9Cdez3TgNIUol2u2-20">
          <mxGeometry relative="1" as="geometry" />
        </mxCell>
        <mxCell id="1a8B9Cdez3TgNIUol2u2-28" value="streetAndNumber" style="ellipse;whiteSpace=wrap;html=1;align=center;" vertex="1" parent="1">
          <mxGeometry x="280" y="120" width="100" height="40" as="geometry" />
        </mxCell>
        <mxCell id="1a8B9Cdez3TgNIUol2u2-47" style="rounded=0;orthogonalLoop=1;jettySize=auto;html=1;exitX=1;exitY=0.5;exitDx=0;exitDy=0;entryX=0;entryY=0.5;entryDx=0;entryDy=0;endArrow=none;endFill=0;" edge="1" parent="1" source="1a8B9Cdez3TgNIUol2u2-33" target="1a8B9Cdez3TgNIUol2u2-1">
          <mxGeometry relative="1" as="geometry" />
        </mxCell>
        <mxCell id="1a8B9Cdez3TgNIUol2u2-48" style="rounded=0;orthogonalLoop=1;jettySize=auto;html=1;exitX=0;exitY=0.5;exitDx=0;exitDy=0;entryX=1;entryY=0.5;entryDx=0;entryDy=0;endArrow=classic;endFill=1;" edge="1" parent="1" source="1a8B9Cdez3TgNIUol2u2-33" target="1a8B9Cdez3TgNIUol2u2-11">
          <mxGeometry relative="1" as="geometry" />
        </mxCell>
        <mxCell id="1a8B9Cdez3TgNIUol2u2-33" value="belongs to" style="shape=rhombus;perimeter=rhombusPerimeter;whiteSpace=wrap;html=1;align=center;" vertex="1" parent="1">
          <mxGeometry x="425" y="280" width="120" height="60" as="geometry" />
        </mxCell>
        <mxCell id="1a8B9Cdez3TgNIUol2u2-43" style="rounded=0;orthogonalLoop=1;jettySize=auto;html=1;exitX=0.5;exitY=1;exitDx=0;exitDy=0;entryX=0.5;entryY=0;entryDx=0;entryDy=0;endArrow=none;endFill=0;" edge="1" parent="1" source="1a8B9Cdez3TgNIUol2u2-34" target="1a8B9Cdez3TgNIUol2u2-1">
          <mxGeometry relative="1" as="geometry" />
        </mxCell>
        <mxCell id="1a8B9Cdez3TgNIUol2u2-44" style="rounded=0;orthogonalLoop=1;jettySize=auto;html=1;exitX=0.5;exitY=0;exitDx=0;exitDy=0;entryX=0.75;entryY=1;entryDx=0;entryDy=0;" edge="1" parent="1" source="1a8B9Cdez3TgNIUol2u2-34" target="1a8B9Cdez3TgNIUol2u2-12">
          <mxGeometry relative="1" as="geometry" />
        </mxCell>
        <mxCell id="1a8B9Cdez3TgNIUol2u2-34" value="owns" style="shape=rhombus;perimeter=rhombusPerimeter;whiteSpace=wrap;html=1;align=center;" vertex="1" parent="1">
          <mxGeometry x="570" y="200" width="120" height="60" as="geometry" />
        </mxCell>
        <mxCell id="1a8B9Cdez3TgNIUol2u2-45" value="N" style="text;html=1;align=center;verticalAlign=middle;resizable=0;points=[];autosize=1;strokeColor=none;fillColor=none;" vertex="1" parent="1">
          <mxGeometry x="635" y="298" width="30" height="30" as="geometry" />
        </mxCell>
        <mxCell id="1a8B9Cdez3TgNIUol2u2-46" value="1" style="text;html=1;align=center;verticalAlign=middle;resizable=0;points=[];autosize=1;strokeColor=none;fillColor=none;" vertex="1" parent="1">
          <mxGeometry x="615" y="148" width="30" height="30" as="geometry" />
        </mxCell>
        <mxCell id="1a8B9Cdez3TgNIUol2u2-49" value="N" style="text;html=1;align=center;verticalAlign=middle;resizable=0;points=[];autosize=1;strokeColor=none;fillColor=none;" vertex="1" parent="1">
          <mxGeometry x="565" y="328" width="30" height="30" as="geometry" />
        </mxCell>
        <mxCell id="1a8B9Cdez3TgNIUol2u2-50" value="1" style="text;html=1;align=center;verticalAlign=middle;resizable=0;points=[];autosize=1;strokeColor=none;fillColor=none;" vertex="1" parent="1">
          <mxGeometry x="375" y="278" width="30" height="30" as="geometry" />
        </mxCell>
        <mxCell id="1a8B9Cdez3TgNIUol2u2-52" style="rounded=0;orthogonalLoop=1;jettySize=auto;html=1;exitX=0;exitY=1;exitDx=0;exitDy=0;entryX=0.75;entryY=0;entryDx=0;entryDy=0;endArrow=none;endFill=0;" edge="1" parent="1" source="1a8B9Cdez3TgNIUol2u2-51" target="1a8B9Cdez3TgNIUol2u2-12">
          <mxGeometry relative="1" as="geometry" />
        </mxCell>
        <mxCell id="1a8B9Cdez3TgNIUol2u2-51" value="admin" style="ellipse;whiteSpace=wrap;html=1;align=center;" vertex="1" parent="1">
          <mxGeometry x="590" y="30" width="100" height="40" as="geometry" />
        </mxCell>
        <mxCell id="1a8B9Cdez3TgNIUol2u2-56" style="rounded=0;orthogonalLoop=1;jettySize=auto;html=1;exitX=0;exitY=0;exitDx=0;exitDy=0;entryX=1;entryY=0.75;entryDx=0;entryDy=0;endArrow=none;endFill=0;" edge="1" parent="1" source="1a8B9Cdez3TgNIUol2u2-55" target="1a8B9Cdez3TgNIUol2u2-12">
          <mxGeometry relative="1" as="geometry" />
        </mxCell>
        <mxCell id="1a8B9Cdez3TgNIUol2u2-55" value="password" style="ellipse;whiteSpace=wrap;html=1;align=center;" vertex="1" parent="1">
          <mxGeometry x="720" y="178" width="100" height="40" as="geometry" />
        </mxCell>
      </root>
    </mxGraphModel>
  </diagram>
</mxfile>
